<?xml version="1.0" standalone="no"?>
<!DOCTYPE svg PUBLIC "-//W3C//DTD SVG 20010904//EN"
 "http://www.w3.org/TR/2001/REC-SVG-20010904/DTD/svg10.dtd">
<svg version="1.0" xmlns="http://www.w3.org/2000/svg"
 width="128.000000pt" height="128.000000pt" viewBox="0 0 128.000000 128.000000"
 preserveAspectRatio="xMidYMid meet">

<g transform="translate(0.000000,128.000000) scale(0.100000,-0.100000)"
fill="#000000" stroke="none">
<path d="M596 963 c-3 -4 -69 -6 -145 -4 -166 3 -192 -6 -222 -75 -23 -51 -18
-100 14 -140 34 -44 74 -54 216 -54 123 0 131 -1 145 -22 21 -30 20 -71 -2
-91 -15 -14 -42 -17 -159 -17 -149 0 -165 5 -174 54 -6 29 -34 43 -54 26 -11
-10 -14 -22 -9 -44 19 -86 65 -106 245 -106 149 0 189 12 216 64 21 40 21 102
0 142 -27 52 -67 64 -216 64 -118 0 -133 2 -151 20 -26 26 -26 72 1 96 17 16
39 20 123 22 112 3 146 -7 156 -47 8 -33 34 -49 54 -32 19 16 22 121 4 139
-13 13 -31 16 -42 5z"/>
<path d="M680 945 c-18 -21 -5 -43 27 -47 27 -3 28 -5 31 -70 3 -66 2 -68 -21
-68 -29 0 -52 -24 -43 -45 3 -9 19 -18 36 -21 30 -6 30 -7 30 -70 0 -60 -1
-63 -26 -66 -35 -4 -53 -31 -35 -52 10 -12 33 -16 92 -16 67 0 80 3 89 19 12
23 -10 51 -41 51 -17 0 -19 7 -19 65 l0 65 88 0 c105 0 156 13 188 47 51 56
39 157 -25 200 -32 22 -44 23 -196 23 -132 0 -165 -3 -175 -15z m344 -64 c21
-18 21 -79 -1 -103 -14 -15 -32 -18 -120 -18 l-103 0 0 63 c0 35 3 67 8 71 12
13 198 2 216 -13z"/>
<path d="M290 235 c0 -13 47 -15 365 -15 318 0 365 2 365 15 0 13 -47 15 -365
15 -318 0 -365 -2 -365 -15z"/>
</g>
</svg>
