<?xml version="1.0"?>
<svg xmlns="http://www.w3.org/2000/svg" xmlns:xlink="http://www.w3.org/1999/xlink" height="100%" width="100%" viewBox="0 0 664 664">
  <circle cx="332" cy="332" r="332" fill="white" />
  <path fill="#b1b3b5" d="M55 227l0 212c0 35 9 46 42 46l327 0c31 0 42-13 42-46l0-206 25 17 0 212c0 28-21 50-47 50l-370 0c-26 0-47-22-47-50l0-218z" transform="scale(1, -1) translate(72,-592)"/>
  <path fill="#008ed3" d="M266 187c0 18 8 31 34 29 38-1 113-9 197 50 16 10 26-4 17-18-19-23-55-51-110-73 58-194-141-225-138-125 0-3 0 137 0 137z m7 111c0-32 28-58 63-58 35 0 64 26 64 58 0 33-29 59-64 59-35 0-63-26-63-59z" transform="scale(1, -1) translate(72,-592)"/>
  <path fill="#f6921e" d="M252 187c0 18-9 31-35 29-38-1-113-9-197 50-16 10-26-4-16-18 19-23 54-51 109-73-58-194 142-225 138-125 0-3 1 137 1 137z m0 111c0-32-29-58-64-58-35 0-63 26-63 58 0 33 28 59 63 59 35 0 64-26 64-59z m82-97c-28-37-61-30-99 5-40 37-14-55 3-58 24-6 33-11 66-4 30 7 45 29 52 44 10 25-8 32-22 13z" transform="scale(1, -1) translate(72,-592)"/>
</svg>
